<?xml version="1.0" encoding="utf-8"?>
<!-- Generator: Adobe Illustrator 26.5.0, SVG Export Plug-In . SVG Version: 6.00 Build 0)  -->
<svg version="1.1" id="Layer_2_00000013915632651719864390000005979090925294732223_"
	 xmlns="http://www.w3.org/2000/svg" xmlns:xlink="http://www.w3.org/1999/xlink" x="0px" y="0px" viewBox="0 0 1200 196"
	 style="enable-background:new 0 0 1200 196;" xml:space="preserve">
<path d="M0,66.4c0,0,43.9-19,94.2,0c42.3,29,57.9,35,115.4,40c52.6-3,113.1,16,152.1,37s64.3,8,113.1,6c43.9,3,68.7,17.9,111.1,41
	c31.2-31,68.2-51,100.4-51c32.2,3,84.8,13,120.9-4c36.1-17,79.9-41,121.9-46c53.6-10,85.8-4,134.5,6c56.5,0,136.5-35,136.5-35v140.1
	H0V66.4z"/>
</svg>
