<svg viewBox="0 0 1920 1501" perspectiveRatio="none">
<path pathLength="1" d="M1111.5,1500.5c2-47,100-153,181-154s141-67,142-75s-3-4-16-4c-17-2-28-23-29-28s-5-13-9-14s-8-3-11-7 c-3-3-4-15-4.8-18.16c-0.8-3.16-6.2-4.84-7.2-11.84s4-9,6-12s4-6,3-10s1-12,4-14s5-6,6-10s3-10,15-14s34,1,38,2s11,7,11,7s-3,1-4,1 s0,13,4,14s6-3,7-6s0-3,0-3s2,1,2,5s-7,7-12,7s-19-6-27-6s-26,9-26,9s-4,2-2,3c6-3,25-9,26-9s24,6,31,12c3,10-1,17-4,17s-7,0-10-3 s-11-4-17-1s-18,8-20,8s-4,1-4,3s10-1,13-3s14-7,18-7s19,6,22,8s5,9,5,9s1,4-6,3s-18,5-23,8s-14,3-14,3s-9-2-6,2s19-1,19-1 s14-8,21-9s15-1,19,3s4,11-2,16c-4,3-14,3-21,6s-10,8-11,13c1-1,9-9,12-10s12,4,14,11s-2,16-2,16s-3,4,0,3c6-4,8-12,6-24 c3,0,8-1,13-3c7-2,12-8,12-10c0-1-1-6-2-9s-5,2-10,7s-11,3-11,3s9-7,12-9s6-11,5-19s-6-39-10-46c-2-6-19-17-24-20s0-3,3-4 s-5-16-5-16s-5-7-13-4s-7,16-6,19s13,1,19,1c6-2,15,0,19-1s0-10-1-13s-3-4,11-9s90-18,95-18s10-1,2,3c-9,6-89,20-101,20 c-6,0-2,10-2,10s19,88,20,92s3,25,5,28c3,2,3-2,3-2l-25-118c0,0-3-7,4-6c14-1,90-18,100-22c3-1,3,1,3,1s19,97,20,103 c-2,3-11,14-13,16s-4,6-4,9s3,9-1,12s-32,8-40,9s-22-2-25-3s-24,3-24,3s-3-2-9-1s-9,8-6,11c2-8,12-6,15-2c2,4-1,5-1,5s-8,1-7,2 s59,21,62,21s11-2,16-1s20,0,20,0s15-1,12,1c-14,4-39,3-39,3s-11-2-8,1s16,7,29,7c8,0,25-3,35-5s19-10,26.87-17.84 c7.87-7.84,21.13-27.16,20.13-45.16c0-14-11-29-17-35s-14-8-26-5c-9,2-11,13-13,16s-14,16-16,21s2,14,8,13s11-8,11-11s-3-6-5-9 s0-2,0-2s9,7,8,14s-14,11-14,11s-6-2-8,0c-7,6-31,10-41,12s-28-2-36-3s-13,3-12,7s16,9,16,5s-3-7-6-9c6-2,10,4,10,4s-2,5-1,9 c6,5,28,4,28,4s12,4,17,3s29-6,46-14s16-14,16-28s22-33,22-33s47.81-60.53,31-120c-16.81-59.47-492-212-691.5-58.67 s-333.5,131.67-357,117.3c-23.5-14.37-49.5-20.63-55.5-5.63c3-6,25-8,37-17s-5-28-18-16s-6,15.17-6,15.17s10-24.17-8-31.17 c-14-5-15,11-14,15s9,21,9,29c-12-12-32-7-38-5s-29,3-26-8s20-15,23-9c-5,10-18.13,3.07-18.13,3.07s-10.87,6.93-21.44,0 c0.43-18.93,50.57-43.07,47.57-31.07s-36,15-36,15s-14,11-25,5c-11-11,26.38-26.5,26.38-26.5s-37.38,26.5-46.38,13.5 c0-21,32-24,29-24s-16,7-22.26,12.56c-6.26,5.56-17.74,4.44-26.74-6.56c-2-15,11-21,14-10s-10,21-19.22,14.5 c-6.22-10.5,17.22-18.5,17.22-18.5s-30,16-38-3c-4-24,17-25,19.97-10.47c2.97,14.53-16.97,25.47-25.97,16.47c3-18,47-32,51-33 c-6,1-46,18-46,18s-21,6-24-4c0-16,19-14,19-14s3,12-19,6c-34,4-6-17-6-17s-1,7-20,7s12-14,7-12s-25,10-27,3c2-23,47-38,48-32 c-6,8-13,15-46.42,19.75C294.66,991,305.5,961.5,311.5,958.5s19,9,12,19s-25,12-25,3s32-21,49.31-31.55 C245.12,918.4,264.5,792.5,313.5,759.5s147-193,103-270s-221-153-243-143s-13,38,32,34s67-39,86-58s65-24,65-23s-9,4-9-3s16-8,18-7 c-11,8-18,4-18,2c0-1,13-9,18-4c7,8-7,11-7,11s0-5,10-8s7,3,7,3s-6,0-12,5s6,3,6,3s12-3,7.52-8.49 c-17.52-4.51,3.48-16.51,8.48-13.51c4,6-11,12-11,12c-4.31-3.23,11-10,14-8c2,7-5,11-9,9c-2-1,2-7,15-9c12,3,39,4,64-1s68-22,89-40 c19-15,31-36,19-45s-49-3-52-3s-6-9-3-6s1,10,0,12s-2,13,2,20c18-5,27-22,28-27s0-13-5-23c-5-9-15-8-24-4s-1,14,2.35,10.9 s9.65-5.9,13.15,0s8.5,22.1-7.5,30.1c-10,6-11,14-13,20c-14,20-40,26-54,26c-7,2-25-4-25-1c0,12,27,10,37,8s31-8,37-13s9-14,3-18 s-18,10-36,16s-36,6-44,3c-12-1-41-42-43-58c2-17,41-35,60-39c18-5,49-9,61-1c10,6,6,9,0,17s-41,22-75,28c-4,1-46,9-38-9 c13-24,68-38,102-34c7,1,14,9,4,15c-18-12-74,10-81,13s-17,10-17,20s21,14,31,18s13,13,5,21s-14,2-16,1s-9-16-15-14 c-20,5-35,19-35,34s29,20,40,20s15-11,17-13s-1-7-4-4s-9,4-13,6s5,5,9,4s11-4,9-10s-10-3-17,0s-2,4-1,4s1-5-3-6c-8,5-13,3-10,1 s6-5,7-7s4-8,7-7c2,10-10,16-13,16s-9-4-2-13c14-11,12-3,12-3s0-2-2-6c-5-7-15-3-15-1s9,8,18,1c3-9-22-9-19,0 c2.62,7.88,19.8,1.97,15.34,1.46c-0.64-0.07-1.71-0.04-3.34,0.17c-36,1.38-35,24.38,0,32.38c29,6,54.5,2.5,100.5-17.5 s80.5-54.5,43-57C682,42,798,63,798,63" class="st0"/>
</svg>